<?xml version="1.0" standalone="no"?>
<!DOCTYPE svg PUBLIC "-//W3C//DTD SVG 20010904//EN"
 "http://www.w3.org/TR/2001/REC-SVG-20010904/DTD/svg10.dtd">
<svg version="1.0" xmlns="http://www.w3.org/2000/svg"
 width="768.000000pt" height="768.000000pt" viewBox="0 0 768.000000 768.000000"
 preserveAspectRatio="xMidYMid meet">
<metadata>
Created by potrace 1.14, written by Peter Selinger 2001-2017
</metadata>
<g transform="translate(0.000000,768.000000) scale(0.100000,-0.100000)"
fill="#000000" stroke="none">
<path d="M5501 7205 c-386 -84 -566 -544 -342 -873 197 -290 614 -330 861 -82
115 115 170 256 166 420 -5 155 -54 268 -166 380 -75 75 -131 110 -235 145
-66 22 -204 27 -284 10z"/>
<path d="M3495 6230 c-43 -9 -96 -36 -125 -63 -31 -29 -107 -114 -281 -317
-117 -137 -234 -273 -264 -306 -5 -6 -31 -35 -57 -65 -98 -114 -67 -79 -279
-324 -57 -65 -115 -131 -128 -145 -55 -58 -84 -176 -62 -255 18 -68 66 -132
128 -172 55 -35 62 -37 143 -38 123 0 157 20 283 165 54 63 111 129 126 145
14 17 80 93 146 170 66 77 122 142 125 145 3 3 32 36 65 75 57 66 108 124 130
149 6 6 59 68 119 138 59 69 116 128 125 130 9 1 123 1 254 -2 l238 -5 -28
-31 c-38 -42 -57 -64 -228 -264 -82 -96 -154 -180 -160 -186 -5 -6 -29 -33
-52 -60 -39 -47 -57 -67 -106 -124 -12 -14 -47 -55 -77 -90 -30 -36 -58 -67
-61 -70 -3 -3 -160 -185 -348 -405 -189 -220 -355 -414 -370 -430 -14 -17 -53
-62 -86 -100 -33 -39 -62 -72 -65 -75 -3 -3 -83 -96 -179 -207 -95 -112 -178
-204 -185 -204 -6 -1 -312 -1 -680 0 -563 1 -679 -1 -728 -14 -221 -56 -332
-300 -232 -511 45 -95 154 -180 255 -198 37 -7 1570 -8 1705 -1 97 4 219 42
283 87 42 30 75 63 196 200 133 149 273 305 285 318 15 16 111 123 200 224 25
28 65 72 90 98 l45 47 240 -236 c132 -129 327 -320 434 -424 l195 -188 -23
-103 c-12 -57 -25 -114 -27 -128 -3 -14 -18 -81 -34 -150 -16 -69 -31 -136
-34 -150 -3 -21 -17 -80 -51 -230 -18 -78 -148 -660 -151 -675 -2 -11 -12 -55
-23 -99 -25 -103 -24 -193 2 -270 16 -49 33 -74 86 -127 56 -55 77 -69 134
-87 147 -48 291 -12 389 96 55 61 87 131 105 232 2 14 19 93 38 175 46 205
204 911 215 960 5 22 16 72 24 110 9 39 18 79 20 90 2 11 10 43 16 70 6 28 13
57 15 65 2 8 20 87 39 175 20 88 38 169 40 180 3 11 12 51 21 89 29 125 18
243 -32 336 -16 28 -170 191 -420 442 -371 371 -395 398 -382 416 14 20 421
493 449 522 17 18 60 68 244 283 81 94 131 145 139 140 7 -4 133 -130 281
-280 231 -234 279 -278 333 -305 106 -52 212 -41 316 31 39 27 338 324 782
776 103 104 196 207 208 230 13 26 22 66 25 116 4 66 1 84 -20 131 -52 113
-144 173 -268 173 -127 0 -125 1 -540 -414 -204 -204 -373 -371 -376 -371 -2
0 -209 205 -459 455 -418 420 -460 458 -522 488 l-68 32 -745 1 c-410 0 -758
-3 -775 -6z"/>
<path d="M7285 5257 c-11 -23 -90 -186 -176 -362 -86 -176 -190 -390 -232
-475 -41 -85 -130 -267 -197 -405 -67 -137 -160 -326 -205 -420 -45 -93 -133
-273 -195 -400 -62 -126 -152 -311 -200 -410 -48 -99 -138 -283 -200 -410 -62
-126 -147 -302 -190 -390 -43 -88 -133 -272 -200 -410 -67 -137 -158 -324
-202 -415 -44 -91 -105 -214 -135 -274 -29 -60 -52 -111 -49 -113 2 -3 55 -5
118 -6 l113 -1 145 291 c181 365 763 1539 1290 2608 92 187 299 605 459 929
160 324 291 593 291 597 0 8 -78 48 -185 94 -30 13 -30 13 -50 -28z"/>
<path d="M210 4760 l-55 -5 -1 -72 -1 -73 174 0 c95 -1 517 -1 938 -1 421 0
792 0 825 1 l60 0 0 75 0 75 -42 0 c-357 4 -1857 4 -1898 0z"/>
<path d="M154 2928 l1 -166 890 -897 c490 -493 908 -908 930 -920 68 -40 149
-47 250 -20 66 17 227 93 223 106 -2 4 -38 46 -81 92 l-77 85 -39 -19 c-55
-26 -110 -37 -151 -28 -29 6 -188 162 -991 970 l-956 963 1 -166z"/>
<path d="M7068 742 c-16 -2 -28 -9 -29 -15 -6 -95 -76 -199 -164 -242 -39 -20
-78 -20 -2305 -25 l-2265 -5 -1 -72 -2 -73 46 0 c427 -5 4482 0 4505 5 135 28
265 123 317 233 25 52 48 138 46 172 -1 24 -4 25 -61 25 -33 0 -72 -1 -87 -3z"/>
</g>
</svg>
